<?xml version="1.0" encoding="UTF-8" standalone="no" ?>
<!DOCTYPE svg PUBLIC "-//W3C//DTD SVG 1.1//EN" "http://www.w3.org/Graphics/SVG/1.1/DTD/svg11.dtd">
<svg xmlns="http://www.w3.org/2000/svg" xmlns:xlink="http://www.w3.org/1999/xlink" version="1.1" width="240" height="50" viewBox="0 0 240 50" xml:space="preserve">
<desc>Created with Fabric.js 5.2.4</desc>
<defs>
</defs>
<g transform="matrix(1 0 0 1 120 25)" id="49744114-91d2-47c8-9785-82d0a7c26725"  >
<rect style="stroke: none; stroke-width: 1; stroke-dasharray: none; stroke-linecap: butt; stroke-dashoffset: 0; stroke-linejoin: miter; stroke-miterlimit: 4; fill: rgb(255,255,255); fill-rule: nonzero; opacity: 1; visibility: hidden;" vector-effect="non-scaling-stroke"  x="-120" y="-25" rx="0" ry="0" width="240" height="50" />
</g>
<g transform="matrix(Infinity NaN NaN Infinity 0 0)" id="6f3eb0ff-d7cb-43c4-a9d5-9670c6586572"  >
</g>
<g transform="matrix(1 0 0 1 120 25)"  >
<g style="" vector-effect="non-scaling-stroke"   >
		<g transform="matrix(1 0 0 1 -97.39 0.28)"  >
<path style="stroke: none; stroke-width: 1; stroke-dasharray: none; stroke-linecap: butt; stroke-dashoffset: 0; stroke-linejoin: miter; stroke-miterlimit: 4; fill: rgb(255,255,255); fill-rule: nonzero; opacity: 1;" vector-effect="non-scaling-stroke"  transform=" translate(-22.41, -19.72)" d="M 27.967 0.879 C 20.242 0.875 12.182 2.615 4.047 4.872 C 3.014 5.08 2.006 5.756 1.4729999999999999 6.592 C 0.983 7.38 0.805 8.171 0.652 9 C -0.138 13.428 -0.041999999999999926 17.776 0.122 22.594 C 0.158 23.697000000000003 0.322 25.004 0.837 25.799 C 1.375 26.602 2.2969999999999997 27.112 3.3979999999999997 27.279 C 4.804604868841323 27.48531732684899 6.2156196432046995 27.66036051128678 7.630000000000011 27.80399999999999 L 7.318 36.501999999999995 C 7.27 37.193999999999996 7.608 37.769 8.027999999999999 38.099999999999994 C 8.403999999999998 38.385999999999996 8.822999999999999 38.51299999999999 9.252999999999998 38.544999999999995 C 10.112999999999998 38.60999999999999 11.121999999999998 38.242 11.622999999999998 37.288 C 13.817999999999998 33.06399999999999 15.194999999999997 31.198999999999998 17.939999999999998 28.392999999999997 C 25.098 28.568999999999996 31.346999999999998 28.170999999999996 38.422 27.647999999999996 C 40.922999999999995 27.582999999999995 42.64 25.537999999999997 43.093999999999994 23.904999999999998 C 44.45099999999999 19.673 44.66199999999999 14.448999999999998 44.806 9.167999999999997 C 44.867 7.0749999999999975 44.141 5.019999999999998 42.855999999999995 3.9339999999999975 C 41.63399999999999 2.9429999999999974 40.153999999999996 2.5839999999999974 38.797999999999995 2.2159999999999975 C 35.031 1.363 31.263 0.905 27.967 0.879 z M 38.257 4.189 C 39.614999999999995 4.558 40.812 4.913 41.567 5.526 C 42.827 6.865 42.785 7.756 42.767 9.201 C 42.625 14.323 42.379000000000005 19.294 41.223000000000006 23.061 C 40.72500000000001 24.466 39.857000000000006 25.466 38.217000000000006 25.617 C 31.009000000000007 26.150000000000002 24.755000000000006 26.562 17.510000000000005 26.356 C 17.224856711955454 26.346876322595136 16.948657490626157 26.456197639556404 16.747000000000003 26.658 C 13.703000000000003 29.732 12.146000000000004 31.868000000000002 9.826000000000004 36.334 C 9.772000000000004 36.436 9.655000000000005 36.498000000000005 9.511000000000005 36.509 C 9.414000000000005 36.504 9.375000000000005 36.429 9.369000000000005 36.361 L 9.683000000000005 26.928999999999995 C 9.702000000000005 26.419999999999995 9.282000000000005 25.933999999999994 8.776000000000005 25.878999999999994 C 7.084115820263485 25.717405221199837 5.39684792156822 25.510664885786564 3.7159999999999975 25.258999999999975 C 2.9900000000000055 25.147999999999993 2.7220000000000057 24.948999999999995 2.5230000000000055 24.65299999999999 C 2.1770000000000054 23.827999999999992 2.1850000000000054 23.31799999999999 2.1580000000000057 22.52499999999999 C 1.9960000000000058 17.749999999999993 1.9160000000000057 13.576999999999991 2.649000000000006 9.424999999999992 C 2.717000000000006 8.810999999999991 2.947000000000006 8.182999999999993 3.191000000000006 7.657999999999992 C 3.595000000000006 7.025999999999993 4.214000000000006 6.932999999999993 4.835000000000006 6.760999999999992 C 12.791000000000007 4.563999999999992 20.575000000000006 2.9209999999999923 27.903000000000006 2.915999999999992 C 31.495000000000005 3.045999999999992 35.267 3.4059999999999917 38.257000000000005 4.188999999999992 z M 10.777999999999999 12.279 C 9.681999999999999 13.592 9.790999999999999 15.375 10.637999999999998 16.569 C 11.079999999999998 17.194 11.769999999999998 17.697 12.609999999999998 17.811 C 13.700999999999997 17.901 14.392999999999997 17.459 15.139999999999997 16.951 C 16.493 15.775 16.629999999999995 13.723 15.600999999999997 12.241 C 15.076999999999998 11.485999999999999 14.238999999999997 11.033 13.382999999999997 11.001 C 12.210999999999997 11.013 11.414999999999997 11.536 10.777999999999997 12.277999999999999 z M 22.634 11.207 C 21.542 11.242 20.659 11.998000000000001 20.12 12.814 C 19.503 13.747 19.143 14.915 19.642 16.06 C 20.602 18.262999999999998 23.919 18.235999999999997 25.241999999999997 15.996999999999998 C 25.851999999999997 14.964999999999998 25.695999999999998 13.791999999999998 25.241999999999997 12.940999999999999 C 24.789999999999996 12.091 24.105999999999998 11.398 23.110999999999997 11.238999999999999 C 22.953391536348413 11.21308351439515 22.79365786286746 11.202367628543179 22.633999999999997 11.207 z M 32.259 11.414000000000001 C 31.919 11.406000000000002 31.569 11.438 31.241 11.525000000000002 C 29.929 11.875000000000002 28.812 13.229000000000003 28.981 14.962000000000002 C 29.067 15.834000000000001 29.468 16.684 30.191000000000003 17.270000000000003 C 30.914 17.855000000000004 31.964000000000002 18.117000000000004 33.071000000000005 17.890000000000004 C 34.343 17.630000000000003 35.13100000000001 16.605000000000004 35.394000000000005 15.615000000000004 C 35.657000000000004 14.625000000000004 35.59100000000001 13.616000000000003 34.980000000000004 12.798000000000004 C 34.33575760471501 11.941321957177292 33.33176229620299 11.430465520787347 32.260000000000005 11.414000000000003 z M 13.294 13.037 C 13.539 13.039000000000001 13.732000000000001 13.117 13.931000000000001 13.403 C 14.376000000000001 14.045 14.252 15.018 13.803 15.408000000000001 C 13.356000000000002 15.798000000000002 13.077000000000002 15.832 12.881 15.806000000000001 C 12.685 15.779000000000002 12.486 15.644 12.308 15.392000000000001 C 11.968 14.912 11.868 14.136000000000001 12.315 13.582 C 12.552999999999999 13.266 12.99 13.069 13.295 13.037 z M 22.777 13.260000000000002 C 22.815 13.266000000000002 23.241 13.513000000000002 23.445 13.896 C 23.649 14.279 23.687 14.635000000000002 23.493 14.962000000000002 C 22.915999999999997 15.938000000000002 21.689 15.674000000000001 21.503 15.249000000000002 C 21.433 15.087000000000002 21.486 14.436000000000002 21.823 13.929000000000002 C 22.158 13.420000000000002 22.580000000000002 13.229000000000003 22.777 13.259000000000002 z M 33.341 14.008000000000001 C 33.403 14.091000000000001 33.554 14.648000000000001 33.437 15.090000000000002 C 33.318999999999996 15.532000000000002 33.126999999999995 15.805000000000001 32.657 15.901000000000002 C 32.055 16.025000000000002 31.716999999999995 15.901000000000002 31.463999999999995 15.694 C 31.209999999999994 15.489 31.038999999999994 15.142000000000001 31.001999999999995 14.771 C 30.911999999999995 13.851 31.241999999999994 13.638000000000002 31.765999999999995 13.498000000000001 C 32.376 13.348 33.065999999999995 13.610000000000001 33.340999999999994 14.008000000000001 z" stroke-linecap="round" />
</g>
		<g transform="matrix(1 0 0 1 28.8 0)"  >
<path style="stroke: none; stroke-width: 1; stroke-dasharray: none; stroke-linecap: butt; stroke-dashoffset: 0; stroke-linejoin: miter; stroke-miterlimit: 4; fill: rgb(255,255,255); fill-rule: nonzero; opacity: 1;" vector-effect="non-scaling-stroke"  transform=" translate(-148.6, -19.44)" d="M 57.61 4.996 C 57.626 4.736000000000001 57.721 4.502000000000001 57.897 4.295000000000001 C 58.07056929174473 4.089375139805389 58.3290969830966 3.975047630077747 58.598 3.9850000000000008 L 65.42399999999999 3.9850000000000008 C 65.654 3.9850000000000008 65.89099999999999 4.081 66.136 4.272000000000001 C 66.36895926126616 4.439254199688928 66.50618259077122 4.709226184910853 66.50399999999999 4.996 L 66.50399999999999 15.889000000000003 L 77.92499999999998 15.889000000000003 L 77.92499999999998 4.996 C 77.92499999999998 4.720000000000001 78.02099999999999 4.4830000000000005 78.21199999999999 4.284000000000001 C 78.40399999999998 4.0840000000000005 78.65199999999999 3.984000000000001 78.95899999999999 3.984000000000001 L 85.69299999999998 3.984000000000001 C 85.99899999999998 3.984000000000001 86.26699999999998 4.061000000000001 86.49699999999999 4.214000000000001 C 86.72699999999999 4.368000000000001 86.84199999999998 4.613000000000001 86.84199999999998 4.950000000000001 L 86.84199999999998 37.1 C 86.84199999999998 37.437000000000005 86.74199999999999 37.690000000000005 86.54199999999999 37.858000000000004 C 86.344 38.027 86.08299999999998 38.111000000000004 85.76199999999999 38.111000000000004 L 78.95899999999999 38.111000000000004 C 78.65299999999999 38.111000000000004 78.40399999999998 38.027 78.21199999999999 37.858000000000004 C 78.02099999999999 37.690000000000005 77.92499999999998 37.438 77.92499999999998 37.1 L 77.92499999999998 24.047 L 66.504 24.047 L 66.504 37.1 C 66.504 37.422000000000004 66.4 37.67 66.194 37.847 C 65.98700000000001 38.023 65.70700000000001 38.111000000000004 65.354 38.111000000000004 L 58.598 38.111000000000004 C 57.955 38.111000000000004 57.626 37.812000000000005 57.61 37.215 L 57.61 4.996 z M 120.485 37.721000000000004 C 120.286 37.889 120.075 37.996 119.853 38.042 C 119.64559062046133 38.08670746290629 119.43416509977371 38.11016195806974 119.222 38.112 L 115.752 38.112 C 115.476 38.112 115.238 38.062000000000005 115.039 37.962 C 114.839 37.862 114.671 37.728 114.533 37.56 C 114.39183595318816 37.385483503951235 114.27602571382204 37.19190534222006 114.18900000000001 36.985 C 114.09639888349606 36.76882694912031 114.0195322407193 36.54624788786238 113.959 36.319 L 113.247 33.377 C 113.017 33.852000000000004 112.684 34.392 112.247 34.997 C 111.77420017032875 35.6390444431245 111.21336290311622 36.21132736885158 110.581 36.697 C 109.907 37.227000000000004 109.102 37.671 108.168 38.031000000000006 C 107.233 38.391000000000005 106.161 38.571000000000005 104.95 38.571000000000005 C 103.20400000000001 38.571000000000005 101.61800000000001 38.234 100.193 37.56 C 98.79787220135886 36.908148081240576 97.55663360958334 35.9681876100388 96.551 34.802 C 95.548 33.638 94.77 32.278 94.21900000000001 30.722 C 93.667 29.168000000000003 93.391 27.509 93.391 25.748 L 93.391 10.695 C 93.391 10.113 93.518 9.673 93.771 9.374 C 94.023 9.075000000000001 94.425 8.926 94.977 8.926 L 100.285 8.926 C 100.945 8.926 101.396 9.036 101.64099999999999 9.259 C 101.886 9.481 102.00899999999999 9.914 102.00899999999999 10.557 L 102.00899999999999 25.517000000000003 C 102.00899999999999 26.177000000000003 102.15899999999999 26.801000000000002 102.45699999999998 27.391000000000002 C 102.75599999999999 27.981 103.14999999999998 28.501 103.64099999999998 28.953000000000003 C 104.13099999999997 29.405000000000005 104.68599999999998 29.762000000000004 105.30699999999997 30.022000000000002 C 105.92699999999998 30.282000000000004 106.55899999999997 30.412000000000003 107.20299999999997 30.412000000000003 C 107.75399999999998 30.412000000000003 108.32499999999997 30.282000000000004 108.91499999999998 30.022000000000002 C 109.50889128569548 29.758666813171686 110.05893764277621 29.405908695755105 110.54599999999998 28.976000000000003 C 111.04399999999998 28.540000000000003 111.45399999999998 28.026000000000003 111.77599999999998 27.436000000000003 C 112.09799999999998 26.846000000000004 112.25799999999998 26.222000000000005 112.25799999999998 25.564000000000004 L 112.25799999999998 10.626 C 112.25799999999998 10.366 112.30799999999998 10.106 112.40799999999999 9.844999999999999 C 112.50799999999998 9.584999999999999 112.65699999999998 9.384999999999998 112.85599999999998 9.246999999999998 C 113.05499999999998 9.124999999999998 113.24299999999998 9.040999999999999 113.41899999999998 8.994999999999997 C 113.59499999999998 8.948999999999998 113.79899999999998 8.924999999999997 114.02799999999998 8.924999999999997 L 119.22199999999998 8.924999999999997 C 119.87999999999998 8.924999999999997 120.35499999999998 9.086999999999998 120.64599999999999 9.407999999999998 C 120.93699999999998 9.729999999999997 121.08299999999998 10.158999999999997 121.08299999999998 10.694999999999997 L 121.08299999999998 36.411 C 121.08299999999998 36.701 121.01799999999999 36.97 120.88799999999999 37.215 C 120.758 37.46000000000001 120.57799999999999 37.652 120.34799999999998 37.789 L 120.48499999999999 37.721000000000004 z M 147.166 34.54900000000001 C 146.752 34.96300000000001 146.296 35.407000000000004 145.799 35.882000000000005 C 145.30100000000002 36.357000000000006 144.75300000000001 36.80200000000001 144.156 37.215 C 143.5550859270597 37.63063061915709 142.90728535555496 37.97399848685105 142.226 38.23800000000001 C 141.5143161137842 38.51016585035183 140.7579223651257 38.646520239123454 139.996 38.64000000000001 C 137.913 38.64000000000001 135.994 38.25000000000001 134.239 37.46800000000001 C 132.5282352765884 36.717326481789875 130.9880186421825 35.62655234220398 129.71200000000002 34.26200000000001 C 128.448 32.906000000000006 127.46000000000002 31.309000000000008 126.74800000000002 29.470000000000006 C 126.03500000000003 27.632000000000005 125.67900000000002 25.656000000000006 125.67900000000002 23.541000000000004 C 125.67900000000002 21.411000000000005 126.03500000000001 19.431000000000004 126.74800000000002 17.601000000000003 C 127.46000000000002 15.771000000000003 128.448 14.177000000000003 129.71200000000002 12.821000000000002 C 130.9865150034999 11.457744222254295 132.52731791260612 10.370639187643004 134.239 9.627000000000004 C 135.994 8.853000000000002 137.913 8.466000000000003 139.996 8.466000000000003 C 140.839 8.466000000000003 141.609 8.589000000000002 142.306 8.834000000000003 C 142.9785599403103 9.067013137934174 143.61922943362273 9.383484382139889 144.21300000000002 9.776000000000003 C 144.788 10.159000000000002 145.31600000000003 10.592000000000004 145.79900000000004 11.074000000000003 C 146.28100000000003 11.557000000000004 146.73700000000002 12.028000000000004 147.16600000000003 12.488000000000003 L 147.16600000000003 1.985 C 147.16600000000003 1.495 147.31600000000003 1.082 147.61400000000003 0.7450000000000001 C 147.91300000000004 0.4070000000000001 148.36100000000005 0.2390000000000001 148.95900000000003 0.2390000000000001 L 154.12900000000002 0.2390000000000001 C 154.329 0.2390000000000001 154.53900000000002 0.2810000000000001 154.76100000000002 0.3650000000000001 C 154.98300000000003 0.4500000000000001 155.18600000000004 0.5680000000000001 155.37100000000004 0.7220000000000001 C 155.55400000000003 0.8750000000000001 155.70300000000003 1.0590000000000002 155.81800000000004 1.2730000000000001 C 155.93300000000005 1.4880000000000002 155.99100000000004 1.725 155.99100000000004 1.985 L 155.99100000000004 36.342 C 155.99100000000004 37.522 155.37100000000004 38.112 154.12900000000005 38.112 L 149.62500000000006 38.112 C 149.31900000000005 38.112 149.08100000000005 38.072 148.91300000000007 37.996 C 148.74614417801172 37.921109885963396 148.59995940177765 37.80683868763959 148.48700000000008 37.663000000000004 C 148.3589976684205 37.49434625075115 148.25469528225682 37.308957170827966 148.17700000000008 37.112 C 148.0686698027727 36.85254915156283 147.953968384265 36.59580469734505 147.83300000000008 36.341999999999985 L 147.16600000000008 34.549 z M 133.952 23.541000000000007 C 133.94431880216385 24.50739724457139 134.10366231348013 25.46785632870502 134.423 26.380000000000006 C 134.737 27.260000000000005 135.185 28.023000000000007 135.768 28.666000000000007 C 136.35649430218763 29.314062373185884 137.07198215401277 29.834169622276665 137.87 30.194000000000006 C 138.69 30.570000000000007 139.598 30.757000000000005 140.594 30.757000000000005 C 141.57399999999998 30.757000000000005 142.49699999999999 30.581000000000007 143.363 30.229000000000006 C 144.2040498570874 29.89209238323135 144.9723670722857 29.396403857296967 145.626 28.769000000000005 C 146.27543550058334 28.1406861546922 146.8017951062268 27.396592743106048 147.178 26.57500000000001 C 147.56799999999998 25.732000000000006 147.787 24.828000000000007 147.833 23.863000000000007 L 147.833 23.541000000000007 C 147.83646219330325 22.579328705474254 147.64883010801086 21.62655201149851 147.281 20.73800000000001 C 146.92477639319753 19.866913582281235 146.40624263360556 19.071466506048523 145.75300000000001 18.394000000000002 C 145.0981146817397 17.717324346337772 144.31754424204902 17.174865254873005 143.455 16.797000000000004 C 142.5533499904946 16.40202855990028 141.5783271065059 16.202320971638347 140.59400000000002 16.211000000000006 C 139.598 16.211000000000006 138.69000000000003 16.406000000000006 137.87000000000003 16.797000000000004 C 137.05000000000004 17.187000000000005 136.35000000000002 17.720000000000006 135.76800000000003 18.394000000000005 C 135.1764455010297 19.08393666540396 134.7201558917075 19.879135806111172 134.42300000000003 20.738000000000003 C 134.10730425765934 21.63860947235682 133.9483352973912 22.586673292849664 133.95300000000003 23.54100000000001 z M 182.672 34.54900000000001 C 182.258 34.96300000000001 181.802 35.407000000000004 181.304 35.882000000000005 C 180.806 36.357000000000006 180.258 36.80200000000001 179.661 37.215 C 179.0600859270597 37.63063061915709 178.41228535555496 37.97399848685105 177.731 38.23800000000001 C 177.01931611378419 38.51016585035183 176.2629223651257 38.646520239123454 175.501 38.64000000000001 C 173.418 38.64000000000001 171.499 38.25000000000001 169.745 37.46800000000001 C 168.0338774327378 36.717443715316065 166.4933111894116 35.6266629343744 165.217 34.26200000000001 C 163.954 32.906000000000006 162.965 31.309000000000008 162.25300000000001 29.470000000000006 C 161.54100000000003 27.632000000000005 161.18400000000003 25.656000000000006 161.18400000000003 23.541000000000004 C 161.18400000000003 21.411000000000005 161.54100000000003 19.431000000000004 162.25300000000001 17.601000000000003 C 162.965 15.771 163.953 14.177000000000003 165.217 12.821000000000002 C 166.49180710733705 11.457632490241444 168.03295995866668 10.370520695376872 169.745 9.627000000000006 C 171.499 8.853000000000002 173.418 8.466000000000003 175.501 8.466000000000003 C 176.344 8.466000000000003 177.114 8.589000000000002 177.811 8.834000000000003 C 178.4835599403103 9.067013137934174 179.12422943362273 9.383484382139889 179.71800000000002 9.776000000000003 C 180.293 10.159000000000002 180.82100000000003 10.592000000000004 181.30400000000003 11.074000000000003 C 181.78700000000003 11.557000000000004 182.24200000000002 12.028000000000004 182.67100000000002 12.488000000000003 L 182.67100000000002 1.985 C 182.67100000000002 1.495 182.82100000000003 1.082 183.11900000000003 0.7450000000000001 C 183.41900000000004 0.4070000000000001 183.86600000000004 0.2390000000000001 184.46400000000003 0.2390000000000001 L 189.63400000000001 0.2390000000000001 C 189.834 0.2390000000000001 190.044 0.2810000000000001 190.26600000000002 0.3650000000000001 C 190.48900000000003 0.4500000000000001 190.692 0.5680000000000001 190.87600000000003 0.7220000000000001 C 191.05900000000003 0.8750000000000001 191.20900000000003 1.0590000000000002 191.32400000000004 1.2730000000000001 C 191.43800000000005 1.4880000000000002 191.49600000000004 1.725 191.49600000000004 1.985 L 191.49600000000004 36.342 C 191.49600000000004 37.522 190.87600000000003 38.112 189.63400000000004 38.112 L 185.13000000000005 38.112 C 184.82400000000004 38.112 184.58600000000004 38.072 184.41800000000006 37.996 C 184.25150676188588 37.920972471104776 184.10567765701455 37.80671107834679 183.99300000000005 37.663000000000004 C 183.86499766842047 37.49434625075115 183.7606952822568 37.308957170827966 183.68300000000005 37.112 C 183.57433959779183 36.85253961117055 183.45930471115454 36.595795081574316 183.33800000000005 36.34200000000001 L 182.67100000000005 34.549 z M 169.457 23.541000000000007 C 169.44931880216384 24.50739724457139 169.60866231348012 25.46785632870502 169.928 26.380000000000006 C 170.243 27.260000000000005 170.691 28.023000000000007 171.273 28.666000000000007 C 171.86178608632622 29.314173351150433 172.57762375307897 29.83428745233835 173.376 30.194000000000006 C 174.196 30.570000000000007 175.103 30.757000000000005 176.09900000000002 30.757000000000005 C 177.079 30.757000000000005 178.002 30.581000000000007 178.86800000000002 30.229000000000006 C 179.70940544096504 29.892205627393924 180.47807106460237 29.39651136480095 181.13200000000003 28.769000000000005 C 181.7807188684061 28.140513851047906 182.30639229582295 27.396431593143042 182.68200000000004 26.575000000000006 C 183.07300000000004 25.732000000000006 183.29200000000006 24.828000000000007 183.33800000000005 23.863000000000007 L 183.33800000000005 23.541000000000007 C 183.3414621933033 22.579328705474254 183.1538301080109 21.62655201149851 182.78600000000006 20.73800000000001 C 182.42977639319759 19.866913582281235 181.9112426336056 19.071466506048523 181.25800000000007 18.394000000000002 C 180.60311468173975 17.717324346337772 179.82254424204908 17.174865254873005 178.96000000000006 16.797000000000004 C 178.05834999049466 16.40202855990028 177.08332710650595 16.202320971638347 176.09900000000007 16.211000000000006 C 175.10300000000007 16.211000000000006 174.19500000000008 16.406000000000006 173.37600000000006 16.797000000000004 C 172.55600000000007 17.187000000000005 171.85500000000008 17.720000000000006 171.27300000000005 18.394000000000005 C 170.6814455010297 19.08393666540396 170.22515589170752 19.879135806111172 169.92800000000005 20.738000000000003 C 169.61230425765936 21.63860947235682 169.45333529739122 22.586673292849664 169.45800000000006 23.54100000000001 z M 197.61 2.008 C 197.61 1.518 197.73200000000003 1.105 197.977 0.768 C 198.223 0.43 198.644 0.262 199.241 0.262 L 204.871 0.262 C 205.025 0.262 205.186 0.304 205.354 0.388 C 205.53063970896957 0.4785872797930239 205.6900481431482 0.5994127808583498 205.82500000000002 0.7449999999999989 C 205.971 0.898 206.09300000000002 1.082 206.193 1.296 C 206.293 1.5110000000000001 206.34300000000002 1.748 206.34300000000002 2.008 L 206.34300000000002 36.342000000000006 C 206.34300000000002 36.92400000000001 206.17800000000003 37.364000000000004 205.848 37.663000000000004 C 205.519 37.962 205.09400000000002 38.111000000000004 204.573 38.111000000000004 L 199.241 38.111000000000004 C 198.644 38.111000000000004 198.223 37.961000000000006 197.977 37.663000000000004 C 197.732 37.364000000000004 197.61 36.923 197.61 36.342000000000006 L 197.61 2.008 z M 236.31 34.618 C 234.97752756984173 35.848900795836116 233.43690749492333 36.833204654690576 231.76 37.525000000000006 C 230.06186239633482 38.22478363061562 228.24164951204372 38.58032848159013 226.405 38.571000000000005 C 224.305 38.571000000000005 222.322 38.188 220.453 37.42100000000001 C 218.6262578861375 36.68268176865243 216.95710099372604 35.60271893179736 215.535 34.239000000000004 C 214.11835731063218 32.872754216326335 212.9791320212662 31.24558056904115 212.18 29.447 C 211.352 27.609 210.939 25.610000000000003 210.939 23.449 C 210.939 22.101000000000003 211.10299999999998 20.795 211.433 19.531000000000002 C 211.75180790298265 18.29426747455415 212.22273388789722 17.101837198914488 212.83499999999998 15.981000000000009 C 213.4401933996081 14.877799636861038 214.18130558047164 13.85482294115409 215.04099999999997 12.936 C 215.89837197492014 12.015629598155018 216.8762260834951 11.21538366616333 217.94799999999998 10.557000000000004 C 219.03842586547688 9.890152712177809 220.21318466126615 9.372222982571312 221.44099999999997 9.017000000000007 C 222.73290701634335 8.644538561667662 224.0714918724076 8.458988811808188 225.41599999999997 8.466000000000003 C 226.68799999999996 8.466000000000003 227.92099999999996 8.635000000000003 229.11599999999996 8.972000000000003 C 230.31099999999995 9.309000000000003 231.43399999999997 9.784000000000002 232.48299999999995 10.396000000000003 C 233.53299999999996 11.009000000000002 234.49299999999994 11.745000000000003 235.36699999999993 12.603000000000002 C 236.22885956777185 13.446704358183455 236.9850624825026 14.391958001596898 237.61899999999994 15.418 C 238.24732229280127 16.436581089050655 238.73824119649993 17.533751214234687 239.07899999999995 18.680999999999994 C 239.42299999999994 19.838 239.59599999999995 21.029 239.59599999999995 22.254 C 239.59599999999995 23.051000000000002 239.58399999999995 23.702 239.56099999999995 24.208000000000002 C 239.53799999999995 24.713 239.41899999999995 25.116000000000003 239.20499999999996 25.414 C 238.98999999999995 25.714000000000002 238.63499999999996 25.92 238.13599999999997 26.034000000000002 C 237.63799999999998 26.150000000000002 236.90599999999998 26.207 235.94199999999998 26.207 L 219.396 26.207 C 219.54899999999998 27.187 219.85899999999998 28.007 220.326 28.667 C 220.75856515255956 29.29169673628392 221.3088422111833 29.826008966663654 221.946 30.240000000000002 C 222.559 30.631 223.21 30.910000000000004 223.9 31.080000000000002 C 224.53858632655528 31.24176548835802 225.19426722650203 31.326369475447922 225.853 31.332 C 226.405 31.332 226.971 31.274 227.553 31.16 C 228.12664313837325 31.047424895169296 228.69143659666238 30.89369413137462 229.243 30.699999999999996 C 229.75880844687993 30.520728944510612 230.25830300496742 30.297578997930326 230.736 30.033 C 231.188 29.781 231.552 29.516 231.828 29.240999999999996 C 232.073 29.040999999999997 232.284 28.891999999999996 232.46 28.791999999999994 C 232.636 28.691999999999993 232.824 28.642999999999994 233.023 28.642999999999994 C 233.22299999999998 28.642999999999994 233.42499999999998 28.712999999999994 233.633 28.849999999999994 C 233.88491004274178 29.026128170267498 234.1193198061109 29.226046211312283 234.333 29.446999999999996 L 236.769 32.205 C 236.937 32.405 237.04500000000002 32.585 237.091 32.745 C 237.137 32.906 237.16 33.071 237.16 33.239 C 237.16 33.546 237.075 33.809999999999995 236.907 34.032 C 236.73716828583807 34.25532513411072 236.53572143963925 34.45272956868011 236.309 34.617999999999995 z M 225.256 15.475000000000001 C 224.658 15.475000000000001 224.08 15.594000000000001 223.521 15.831000000000001 C 222.9536783110198 16.073213104571845 222.4234349969483 16.39438905480944 221.946 16.785000000000004 C 221.456 17.183 221.016 17.635 220.625 18.141000000000002 C 220.25186334972886 18.618057409044763 219.931965324836 19.134454640003874 219.671 19.680999999999997 L 231.414 19.681 C 231.106060855705 19.104838641313318 230.7568147142364 18.55172633114057 230.369 18.025999999999996 C 230.0002377306355 17.527213556254416 229.56753411583466 17.079044233387688 229.082 16.693000000000005 C 228.58527717893932 16.302426621361118 228.0255887283125 15.99941704325741 227.427 15.797 C 226.807 15.582 226.083 15.475000000000001 225.256 15.475000000000001 z" stroke-linecap="round" />
</g>
</g>
</g>
</svg>